@startuml
'namespace EtAlii.Generators.Stateless.Tests
'class MyNestedStateMachine1Base
'using System.Text

[*] -> State1 << (string name) >> : Start
State1 : this is a string
State1 : this is another string
state State2 {
    State2 -> State2 << (string name) >> : Check
    SubState1 -> SubState2 : Continue
}
State1 --> SubState2 : Continue
State2 --> State3 : Continue
State3 --> State4 << async >> : Continue
@enduml
